<svg width="31" height="31" viewBox="0 0 31 31" fill="none" xmlns="http://www.w3.org/2000/svg">
<rect x="0.800049" width="30" height="31" rx="8" fill="white" fill-opacity="0.2"/>
<path d="M25.7893 9.62832C24.4882 9.62832 23.2876 9.1829 22.3236 8.43149C21.2179 7.57011 20.4235 6.30657 20.1429 4.85022C20.0735 4.49039 20.0361 4.11906 20.0325 3.73853H16.3156V14.2334L16.3112 19.9819C16.3112 21.5188 15.3426 22.8219 14.0001 23.2802C13.6104 23.4132 13.1896 23.4762 12.7515 23.4514C12.1922 23.4196 11.6681 23.2452 11.2125 22.9636C10.2431 22.3645 9.58584 21.2777 9.56803 20.0344C9.53998 18.0912 11.0602 16.507 12.9394 16.507C13.3103 16.507 13.6665 16.5695 14.0001 16.6832V13.8147V12.7835C13.6483 12.7297 13.2903 12.7016 12.9282 12.7016C10.8714 12.7016 8.94773 13.5851 7.57266 15.1767C6.53333 16.3795 5.90992 17.9141 5.81373 19.5232C5.68771 21.6371 6.43626 23.6465 7.88793 25.1291C8.10122 25.3467 8.32521 25.5487 8.55943 25.7351C9.80404 26.7248 11.3256 27.2614 12.9282 27.2614C13.2903 27.2614 13.6483 27.2337 14.0001 27.1799C15.4972 26.9508 16.8785 26.2426 17.9686 25.1291C19.308 23.7611 20.0481 21.9449 20.0561 20.0118L20.037 11.4275C20.676 11.9368 21.3746 12.3583 22.1245 12.6855C23.2907 13.1939 24.5273 13.4516 25.8 13.4512V10.6623V9.6274C25.8009 9.62832 25.7902 9.62832 25.7893 9.62832Z" fill="#9CA0AB"/>
</svg>
