<svg width="32" height="31" viewBox="0 0 32 31" fill="none" xmlns="http://www.w3.org/2000/svg">
<rect x="0.599976" width="31" height="31" rx="8" fill="white" fill-opacity="0.2"/>
<path d="M21.8481 14.6036C21.7449 14.5531 21.6396 14.504 21.533 14.4578C21.3478 10.9674 19.4813 8.96877 16.3465 8.94856C14.5379 8.93629 12.9185 9.68982 11.9097 11.2539L13.6335 12.4621C14.3506 11.3506 15.4761 11.1139 16.3048 11.1139H16.3331C17.3653 11.1204 18.1446 11.4271 18.6483 12.0248C19.015 12.4607 19.2608 13.0619 19.3824 13.8212C18.4667 13.6625 17.4776 13.6134 16.4193 13.6754C13.4392 13.8508 11.5232 15.6264 11.6518 18.0934C11.7168 19.3457 12.3272 20.4218 13.37 21.1256C14.2517 21.7203 15.3878 22.0112 16.5676 21.9448C18.1269 21.8582 19.3491 21.2504 20.2026 20.1396C20.8505 19.2959 21.2602 18.2024 21.4411 16.8253C22.1836 17.2829 22.734 17.8855 23.0385 18.6102C23.555 19.8415 23.5853 21.8654 21.9689 23.5153C20.553 24.9611 18.8504 25.5861 16.278 25.6056C13.4237 25.5839 11.2653 24.6485 9.86221 22.8261C8.54811 21.1198 7.86916 18.6549 7.84372 15.5001C7.86916 12.3452 8.54811 9.88037 9.86221 8.1741C11.2653 6.35163 13.4237 5.41621 16.278 5.39456C19.152 5.41621 21.3478 6.35596 22.8054 8.18709C23.5196 9.08498 24.058 10.2145 24.4134 11.5311L26.4333 10.9803C26.003 9.35997 25.3262 7.96335 24.4042 6.8049C22.5362 4.45698 19.8048 3.25451 16.285 3.22925H16.2709C12.7582 3.25451 10.0565 4.46203 8.24219 6.81862C6.62712 8.91536 5.79416 11.8335 5.7666 15.4914V15.5087C5.79416 19.1667 6.62712 22.0848 8.24219 24.1815C10.0565 26.5381 12.7582 27.7464 16.2709 27.7709H16.285C19.4078 27.7485 21.6093 26.9134 23.4229 25.0621C25.7953 22.6406 25.7239 19.6055 24.9418 17.7419C24.3809 16.4059 23.3112 15.3204 21.8481 14.6036ZM16.456 19.7831C15.1504 19.8581 13.7932 19.2591 13.7261 17.9765C13.6766 17.0252 14.3888 15.9635 16.5366 15.8371C16.7824 15.8227 17.024 15.8155 17.2607 15.8155C18.0407 15.8155 18.7705 15.8927 19.4339 16.0414C19.1867 19.1984 17.7355 19.7109 16.456 19.7831Z" fill="#9CA0AB"/>
</svg>
