<svg width="24" height="24" viewBox="0 0 24 24" fill="none" xmlns="http://www.w3.org/2000/svg">
<path d="M11.9996 8.75464C10.2029 8.75464 8.75435 10.2171 8.75435 12C8.75435 13.7829 10.2168 15.2454 11.9996 15.2454C13.7823 15.2454 15.2448 13.7829 15.2448 12C15.2448 10.2171 13.7823 8.75464 11.9996 8.75464ZM21.7491 12C21.7491 10.6489 21.7491 9.32571 21.6795 7.97464C21.6098 6.41464 21.2477 5.02179 20.1056 3.89357C18.9635 2.75143 17.5847 2.38929 16.0247 2.31964C14.6737 2.25 13.3506 2.25 11.9996 2.25C10.6486 2.25 9.3254 2.25 7.97439 2.31964C6.41446 2.38929 5.02166 2.75143 3.8935 3.89357C2.75141 5.03571 2.38928 6.41464 2.31964 7.97464C2.25 9.32571 2.25 10.6489 2.25 12C2.25 13.3511 2.25 14.6743 2.31964 16.0254C2.38928 17.5854 2.75141 18.9782 3.8935 20.1064C5.03559 21.2486 6.41446 21.6107 7.97439 21.6804C9.3254 21.75 10.6486 21.75 11.9996 21.75C13.3506 21.75 14.6737 21.75 16.0247 21.6804C17.5847 21.6107 18.9775 21.2486 20.1056 20.1064C21.2477 18.9643 21.6098 17.5854 21.6795 16.0254C21.7631 14.6882 21.7491 13.3511 21.7491 12ZM11.9996 17.0004C9.2279 17.0004 6.99943 14.7718 6.99943 12C6.99943 9.22821 9.2279 6.99964 11.9996 6.99964C14.7712 6.99964 16.9997 9.22821 16.9997 12C16.9997 14.7718 14.7712 17.0004 11.9996 17.0004ZM17.2086 7.96071C16.5679 7.96071 16.0387 7.44536 16.0387 6.79071C16.0387 6.13607 16.554 5.62071 17.2086 5.62071C17.8632 5.62071 18.3786 6.13607 18.3786 6.79071C18.3821 6.94328 18.3542 7.09495 18.2967 7.23631C18.2392 7.37767 18.1533 7.50571 18.0443 7.6125C17.9375 7.72152 17.8095 7.80745 17.6681 7.86495C17.5268 7.92246 17.3751 7.95031 17.2225 7.94679L17.2086 7.96071Z" fill="#9CA0AB"/>
</svg>
