<svg width="64" height="64" viewBox="0 0 64 64" fill="none" xmlns="http://www.w3.org/2000/svg">
<path d="M31.9993 26.6743C29.0508 26.6743 26.6738 29.0743 26.6738 32C26.6738 34.9257 29.0737 37.3257 31.9993 37.3257C34.9249 37.3257 37.3248 34.9257 37.3248 32C37.3248 29.0743 34.9249 26.6743 31.9993 26.6743ZM47.9986 32C47.9986 29.7829 47.9986 27.6114 47.8843 25.3943C47.77 22.8343 47.1758 20.5486 45.3015 18.6971C43.4273 16.8229 41.1646 16.2286 38.6047 16.1143C36.3877 16 34.2163 16 31.9993 16C29.7822 16 27.6109 16 25.3939 16.1143C22.834 16.2286 20.5484 16.8229 18.697 18.6971C16.8228 20.5714 16.2286 22.8343 16.1143 25.3943C16 27.6114 16 29.7829 16 32C16 34.2171 16 36.3886 16.1143 38.6057C16.2286 41.1657 16.8228 43.4514 18.697 45.3029C20.5712 47.1771 22.834 47.7714 25.3939 47.8857C27.6109 48 29.7822 48 31.9993 48C34.2163 48 36.3877 48 38.6047 47.8857C41.1646 47.7714 43.4502 47.1771 45.3015 45.3029C47.1758 43.4286 47.77 41.1657 47.8843 38.6057C48.0214 36.4114 47.9986 34.2171 47.9986 32ZM31.9993 40.2057C27.4509 40.2057 23.7939 36.5486 23.7939 32C23.7939 27.4514 27.4509 23.7943 31.9993 23.7943C36.5477 23.7943 40.2046 27.4514 40.2046 32C40.2046 36.5486 36.5477 40.2057 31.9993 40.2057ZM40.5475 25.3714C39.4961 25.3714 38.6276 24.5257 38.6276 23.4514C38.6276 22.3771 39.4732 21.5314 40.5475 21.5314C41.6217 21.5314 42.4674 22.3771 42.4674 23.4514C42.4732 23.7018 42.4275 23.9507 42.3331 24.1827C42.2388 24.4146 42.0977 24.6248 41.9188 24.8C41.7436 24.9789 41.5335 25.1199 41.3015 25.2143C41.0696 25.3086 40.8207 25.3544 40.5703 25.3486L40.5475 25.3714Z" fill="white"/>
</svg>
