<svg xmlns="http://www.w3.org/2000/svg" width="78" height="79" fill="none"><path fill="#fff" d="M30.333 55.2 54.5 39.5 30.333 23.8v31.4Zm8.68 23.8c-5.39 0-10.46-1.036-15.21-3.107-4.746-2.075-8.876-4.89-12.389-8.445-3.513-3.552-6.293-7.73-8.342-12.534C1.024 50.109 0 44.976 0 39.514c0-5.46 1.023-10.596 3.068-15.406 2.048-4.807 4.827-8.99 8.337-12.548 3.507-3.558 7.633-6.374 12.376-8.448C28.525 1.037 33.593 0 38.987 0c5.39 0 10.46 1.036 15.21 3.107 4.746 2.075 8.876 4.89 12.389 8.445 3.513 3.552 6.293 7.73 8.342 12.534C76.976 28.891 78 34.024 78 39.486c0 5.46-1.023 10.596-3.068 15.406-2.048 4.807-4.827 8.99-8.337 12.548-3.507 3.558-7.633 6.374-12.376 8.448C49.475 77.963 44.407 79 39.013 79ZM39 74.611c9.678 0 17.875-3.401 24.592-10.204 6.716-6.803 10.075-15.105 10.075-24.907s-3.359-18.104-10.075-24.907C56.875 7.79 48.678 4.39 39 4.39c-9.678 0-17.875 3.401-24.592 10.204C7.692 21.396 4.333 29.698 4.333 39.5s3.359 18.104 10.075 24.907C21.125 71.21 29.322 74.61 39 74.61Z"/></svg>