<svg width="64" height="64" viewBox="0 0 64 64" fill="none" xmlns="http://www.w3.org/2000/svg">
<path d="M40.9003 30.6277C40.7406 30.5504 40.5776 30.4753 40.4124 30.4046C40.1258 25.0618 37.2356 22.0026 32.3818 21.9717C29.5813 21.9529 27.074 23.1063 25.5118 25.5004L28.181 27.3498C29.2914 25.6484 31.034 25.2861 32.3172 25.2861H32.361C33.9592 25.296 35.1659 25.7655 35.9458 26.6803C36.5136 27.3476 36.8943 28.2679 37.0825 29.4301C35.6647 29.1871 34.1332 29.112 32.4945 29.207C27.8802 29.4754 24.9134 32.1932 25.1125 35.9694C25.2132 37.8862 26.1583 39.5335 27.773 40.6107C29.1382 41.521 30.8973 41.9662 32.7242 41.8646C35.1385 41.732 37.031 40.8018 38.3525 39.1015C39.3557 37.81 39.9902 36.1362 40.2702 34.0283C41.4199 34.7287 42.2721 35.6512 42.7436 36.7605C43.5433 38.6452 43.5903 41.7431 41.0874 44.2686C38.8951 46.4815 36.2587 47.4383 32.2757 47.4681C27.8561 47.435 24.5142 46.0032 22.3416 43.2136C20.3069 40.6018 19.2556 36.8289 19.2162 31.9999C19.2556 27.1708 20.3069 23.398 22.3416 20.7862C24.5142 17.9966 27.8561 16.5648 32.2757 16.5317C36.7258 16.5648 40.1258 18.0033 42.3826 20.8061C43.4886 22.1805 44.3222 23.9095 44.8724 25.9246L48 25.0817C47.3338 22.6014 46.2858 20.4636 44.8582 18.6904C41.9658 15.0965 37.7366 13.256 32.2866 13.2173H32.2647C26.8257 13.256 22.6424 15.1043 19.8332 18.7114C17.3324 21.9209 16.0427 26.3875 16 31.9866V32.0131C16.0427 37.6122 17.3324 42.0789 19.8332 45.2884C22.6424 48.8955 26.8257 50.7449 32.2647 50.7825H32.2866C37.1218 50.7483 40.5306 49.47 43.3387 46.6362C47.0122 42.9296 46.9017 38.284 45.6907 35.4314C44.8221 33.3864 43.1659 31.7248 40.9003 30.6277ZM32.5513 38.5557C30.5297 38.6706 28.4283 37.7537 28.3244 35.7904C28.2478 34.3343 29.3505 32.7092 32.6761 32.5158C33.0567 32.4937 33.4309 32.4827 33.7973 32.4827C35.0051 32.4827 36.1351 32.6009 37.1623 32.8285C36.7794 37.6609 34.5325 38.4453 32.5513 38.5557Z" fill="white"/>
</svg>
