<svg width="64" height="64" viewBox="0 0 64 64" fill="none" xmlns="http://www.w3.org/2000/svg">
<path d="M47.9828 22.9083C45.901 22.9083 43.9801 22.2186 42.4376 21.0551C40.6685 19.7214 39.3975 17.7649 38.9486 15.5099C38.8375 14.9528 38.7776 14.3778 38.7719 13.7886H32.8249V30.0387L32.8178 38.9397C32.8178 41.3193 31.2681 43.3371 29.12 44.0467C28.4966 44.2526 27.8233 44.3502 27.1223 44.3117C26.2274 44.2626 25.3888 43.9925 24.6599 43.5565C23.1089 42.6289 22.0573 40.946 22.0288 39.0209C21.9839 36.0121 24.4163 33.559 27.4229 33.559C28.0164 33.559 28.5864 33.6559 29.12 33.8319V29.3904V27.7937C28.5572 27.7103 27.9844 27.6669 27.4051 27.6669C24.1142 27.6669 21.0363 29.0348 18.8362 31.4993C17.1733 33.3617 16.1758 35.7378 16.0219 38.2293C15.8203 41.5024 17.0179 44.6138 19.3406 46.9094C19.6819 47.2464 20.0403 47.5592 20.415 47.8477C22.4064 49.3803 24.8409 50.211 27.4051 50.211C27.9844 50.211 28.5572 50.1683 29.12 50.0849C31.5154 49.7301 33.7255 48.6336 35.4696 46.9094C37.6127 44.7912 38.7969 41.9791 38.8097 38.986L38.7791 25.694C39.8015 26.4827 40.9193 27.1354 42.1191 27.6419C43.9851 28.4292 45.9637 28.8282 47.9999 28.8275V24.5092V22.9068C48.0013 22.9083 47.9842 22.9083 47.9828 22.9083Z" fill="white"/>
</svg>
