<svg xmlns="http://www.w3.org/2000/svg" width="48" height="48" fill="none"><path stroke="#fff" stroke-linecap="round" stroke-width="1.5" d="M33.803 20a40.484 40.484 0 0 1 0 8M29.877 21a36.485 36.485 0 0 1 0 6"/><path fill="#fff" stroke="#fff" stroke-linejoin="round" d="M25 24c0-2.542-.215-5.03-.627-7.444-.124-.725-.97-1.043-1.556-.598l-3.28 2.492a2 2 0 0 1-1.21.407H15a2 2 0 0 0-2 2v6.286a2 2 0 0 0 2 2h3.327a2 2 0 0 1 1.21.407l3.28 2.492c.586.445 1.432.127 1.556-.598C24.785 29.03 25 26.542 25 24Z"/></svg>